/* XPM */
static char *c79ef3eef0db485bf9a6931089a6584aHKzrgehy8DQ2wRkl[] = {
/* columns rows colors chars-per-pixel */
"32 32 136 2 ",
"   c #47355E",
".  c #54345F",
"X  c #50385F",
"o  c #59385E",
"O  c #4E2E67",
"+  c #453464",
"@  c #4C3560",
"#  c #4E3961",
"$  c #4C336A",
"%  c #523665",
"&  c #563861",
"*  c #5A3A62",
"=  c #543569",
"-  c #5B366A",
";  c #543C6A",
":  c #5C3A6B",
">  c #63366C",
",  c #61386C",
"<  c #693F6F",
"1  c #76446C",
"2  c #7B446D",
"3  c #764F68",
"4  c #7D4A6D",
"5  c #7C536C",
"6  c #604170",
"7  c #744470",
"8  c #7F4670",
"9  c #7D4E70",
"0  c #7F5173",
"q  c #824367",
"w  c #85456D",
"e  c #844C6E",
"r  c #8A4C6E",
"t  c #944C6D",
"y  c #84516D",
"u  c #8B516D",
"i  c #91526E",
"p  c #98546F",
"a  c #9F596E",
"s  c #834570",
"d  c #844B71",
"f  c #8B4E72",
"g  c #904970",
"h  c #8A5171",
"j  c #8B5970",
"k  c #935170",
"l  c #A0596D",
"z  c #93616F",
"x  c #AF606E",
"c  c #B5646E",
"v  c #B9666F",
"b  c #B16372",
"n  c #B66D73",
"m  c #BF6C75",
"M  c #BF7173",
"N  c #C76A67",
"B  c #C3676F",
"V  c #C2696F",
"C  c #CD6E6E",
"Z  c #D06F69",
"A  c #C77760",
"S  c #CA7966",
"D  c #CE716F",
"F  c #D1726D",
"G  c #C16771",
"H  c #CB6675",
"J  c #C46C74",
"K  c #CC6E73",
"L  c #C46D78",
"P  c #D16E73",
"I  c #D06B78",
"U  c #C67473",
"Y  c #CE7272",
"T  c #CC7973",
"R  c #C77078",
"E  c #CC7379",
"W  c #CC7978",
"Q  c #D27272",
"!  c #D97575",
"~  c #D37A74",
"^  c #DA7B75",
"/  c #D47578",
"(  c #D07B7B",
")  c #DD7E7D",
"_  c #E47C76",
"`  c #D68175",
"'  c #DC8779",
"]  c #DB8C79",
"[  c #DF9178",
"{  c #E08275",
"}  c #EE8275",
"|  c #E48D7A",
" . c #ED8F79",
".. c #EC9C75",
"X. c #E2937A",
"o. c #E39779",
"O. c #E69779",
"+. c #EB9779",
"@. c #E1987A",
"#. c #E7987A",
"$. c #EC987B",
"%. c #F09C77",
"&. c #F29A7A",
"*. c #F49C7C",
"=. c #E3A17E",
"-. c #E4A17E",
";. c #F4A07B",
":. c #DE8F80",
">. c #E19283",
",. c #E59680",
"<. c #E69681",
"1. c #E99484",
"2. c #E89485",
"3. c #E59B83",
"4. c #E79F82",
"5. c #E79F83",
"6. c #E79884",
"7. c #E59D84",
"8. c #E79F84",
"9. c #E79E87",
"0. c #EC9A83",
"q. c #E89E80",
"w. c #EB9A85",
"e. c #EF9B87",
"r. c #E99C85",
"t. c #E99E85",
"y. c #EE9891",
"u. c #E4A080",
"i. c #E6A180",
"p. c #E7A081",
"a. c #E7A182",
"s. c #E7A183",
"d. c #E9A183",
"f. c #EEA289",
"g. c #EDA488",
"h. c #F1A789",
/* pixels */
"D ~ Y W f V Z P y.9.5.a.a.-.=.a.q.K K K K K K K e ..Q P P P P P ",
"~ m J 2 d J K K E n d.a.a.5.0.L ] K K K K K K K w %.Y / Y Y K Q ",
"Y Y K d 7 R K K w u t.5.a.h.w.q | Y K K K P / K d +.K Q / / K P ",
"Y / K d 8 E E L 4 . g.3.7.z y 4 S C K K K K Q K 0 ;.E ! ! / P P ",
"Y J I d f L E L 3 * t.3.t.5 * * #.D C K Y Q Y Y 4 &.E K ! K P P ",
"Y J H d 8 f d 7 5 . :.1.e.4 * X X.D C K K K Y C d f k f w w J P ",
"` E I L L L h : # f.( Y E r .   [ D D K K K Y D $.*.#.@.o.9 h J ",
"~ / I L L E h $ @ >.J / K q .   A N D C Y Q D C U ~ U ~ O.< 4 R ",
"Y / I g s d d 6 @ 1./ / K q o + <.Q D K D Y D D ) Q K Q L > e Q ",
"Y Y / e = O : : $ ^ ! / / 2 = + ! Q D Y Q Y D D Q Q Q Q R - h ! ",
"Y K / u e : $ - : U K K K 2 $ ; Q Q Q Q Q Q Y Y Q Q Q Q Q : r ! ",
"Y J K J p e 4 e r n ! P ! w ; ; V Q Q Q Q Q Q Y Y Q Q Q Q : r Y ",
"Q Y Y K J K J J 2 { Q Q Y w - : _ ! Q Q Q Q Q Y Y Q Q Q Q = u Q ",
"~ K K K K K K J w  .K P / r 1 = K Q Q Q Q Q Q Q Y Q Q Q Q = 4 Y ",
"` ! P P K K K K w ^ ! ! Q J j : Q Q Q Q Y Q Q Q Q Q Q Q Q = u ! ",
"~ K P ! C / P / t ~ P P P J e = Q Q Q Q Q Q Q Q Q Q Q Q Q : 4 a ",
"~ Q Q P K P ! K w | Q P K ! 2 $ Q Q Q Q Q Q Q Q Q Q Q Q Q = u } ",
"T K Y Q P J ! G r T / ! K J u $ c Y Q Q Y Q Q Q Q Q Q Q Q : u ! ",
"Y Q K K K K J J r M P ! K ! j ; Q Y Y Q Q Q Q Q Q Q Q Q Q : u J ",
"~ Q t ~ t ~ i i 1 y / ! ! K 5 ; l K Q Q Q Q Q Q Q Q Q Q Q : i ! ",
"~ Q K Q Y K R r , : J ! ^ Q y $ v Y Y Q Q Q Q Q Q Q Q Q Q = u _ ",
"Y Q Q / Q Y R U 4 ; - Y ! ! y $ J Y Y Q Y Q Q Q Q Q Q Q Q : u Y ",
"Y Q B Y Y Y Y Y e ; - ! Q ! e : x K Q Q Q Q Q Q Q Q Q Q Q : u Q ",
"Y Q Y Q Q Q Y Y 4 $ , ! Q K e = x Q Q Q Q Q Q Q Q Q Q Q Q : e Y ",
"Y Q Q Q Q Q Q Q e ; = J Y K k - m Y Y Q Q Q Q Q Q Q Q Q Q ; u Q ",
"R Q Q Q Q Q Q Q e % - / D Y h * c Y Y Q Y Q Q Q Q Q Q Q Q % u Q ",
"Y Q Q Q Q Q Q Q e & 1 / F Y f * b Y Y Q Y Q Q Q Q Q Q Q Q % u Q ",
"Y P Q Q Q Q Q Q e & a P F D f & b Y Y Q Q Q Q Q Q Q Q Q Q % h Q ",
"~ D Y Q Q Q Q Q e * J P F D f & b Y Y Q Q Q Q Q Q Q Q Q Q % h Q ",
"Q Y Y Q Q Q Q Q e * Q / F F f & b Y Y Q Q Q Q Q Q Q Q Q Q % h Q ",
"~ Y Y Q Q Q Q Q e & Q / F F f % b Y Y Q Y Q Q Q Q Q Q Q Q % h Q ",
"' Y Y Q Q Q Q Q 4 & Y Q F F f @ b Y Y Q Y Q Q Q Q Q Q Q Q % h Q "
};
