/* XPM */
static char *cd579f7e46614ca3ce9029e4ef4460eejlWu5jIWJC2RzVNw[] = {
/* columns rows colors chars-per-pixel */
"32 32 155 2 ",
"   c #6F3245",
".  c #7A3B49",
"X  c #752F5C",
"o  c #703452",
"O  c #743A53",
"+  c #7B3A55",
"@  c #76325B",
"#  c #7B365C",
"$  c #763859",
"%  c #7C3B5C",
"&  c #7C4055",
"*  c #7F415E",
"=  c #833D5C",
"-  c #893E5C",
";  c #86414C",
":  c #82415C",
">  c #8B435D",
",  c #9B4D5E",
"<  c #9C5551",
"1  c #9D515C",
"2  c #9F585F",
"3  c #AC5055",
"4  c #A3555E",
"5  c #AD565E",
"6  c #A5595F",
"7  c #AC5B5E",
"8  c #B2545E",
"9  c #B05E5C",
"0  c #B95F5D",
"q  c #AF625D",
"w  c #B66C57",
"e  c #B6635E",
"r  c #B9625E",
"t  c #9D5261",
"y  c #A64D60",
"u  c #A55562",
"i  c #AA5563",
"p  c #A55A61",
"a  c #AB5C61",
"s  c #AE5A6B",
"d  c #B25D61",
"f  c #BB5F61",
"g  c #A76164",
"h  c #AC6262",
"j  c #B36361",
"k  c #BE6567",
"l  c #BA6864",
"z  c #CD735F",
"x  c #D27A5F",
"c  c #DA7B5F",
"v  c #C36E61",
"b  c #D06D62",
"n  c #CE7762",
"m  c #CD7B63",
"M  c #D67261",
"N  c #DA7761",
"B  c #D57C63",
"V  c #DA7E64",
"C  c #E27F64",
"Z  c #CD8164",
"A  c #D48365",
"S  c #DD8264",
"D  c #D58C65",
"F  c #DB8A65",
"G  c #D68168",
"H  c #DD8368",
"J  c #D58C68",
"K  c #D98D68",
"L  c #DC9465",
"P  c #DE9568",
"I  c #DD9D68",
"U  c #E18465",
"Y  c #E28A66",
"T  c #E98E65",
"R  c #E28568",
"E  c #E88468",
"W  c #E48B69",
"Q  c #E88B6A",
"!  c #E29366",
"~  c #E39C66",
"^  c #E09568",
"/  c #EA9568",
"(  c #E49C6A",
")  c #EE9D69",
"_  c #F29C6A",
"`  c #E5A065",
"'  c #EEA567",
"]  c #EDA867",
"[  c #E4A16A",
"{  c #ECA36B",
"}  c #EFA96B",
"|  c #EDAA6A",
" . c #EFAB6B",
".. c #EFAB69",
"X. c #EAAF6A",
"o. c #ECAE6A",
"O. c #EFAE6B",
"+. c #EEA96C",
"@. c #EFAB6D",
"#. c #EEAB6C",
"$. c #EEAC6C",
"%. c #ECAA6B",
"&. c #F1A267",
"*. c #F4A167",
"=. c #F1A467",
"-. c #F1A967",
";. c #F3A368",
":. c #F0A36A",
">. c #F1A469",
",. c #F2A568",
"<. c #F1A668",
"1. c #F3A769",
"2. c #F7A468",
"3. c #F3A56C",
"4. c #F6A66D",
"5. c #F3A569",
"6. c #F9A568",
"7. c #FAA468",
"8. c #F8A768",
"9. c #F9A66D",
"0. c #FEA069",
"q. c #F0A968",
"w. c #F1AB68",
"e. c #F2AB69",
"r. c #F0A86B",
"t. c #F5AA68",
"y. c #F4AB6B",
"u. c #F3AD68",
"i. c #F3AD69",
"p. c #F1AE69",
"a. c #F1AF69",
"s. c #F2AE68",
"d. c #F2AF68",
"f. c #F0AD6B",
"g. c #F3AD6A",
"h. c #F4AC68",
"j. c #F5AD69",
"k. c #F5AF69",
"l. c #F0A96C",
"z. c #F1AB6C",
"x. c #F0AB6D",
"c. c #F3AA6C",
"v. c #F0AC6D",
"b. c #F1AE6C",
"n. c #F3AF6E",
"m. c #F6AC6D",
"M. c #F4AC6B",
"N. c #F8AA69",
"B. c #FAAD6A",
"V. c #F3B269",
"C. c #F1B06A",
"Z. c #F5B169",
"A. c #F7B069",
"S. c #F1B06D",
"D. c #FCB16E",
/* pixels */
"{ { l.l.@.@.@.l.l.r.%.Z { r.@.$.o.C.C.f.J B.&.>.f.r.J J  . . .A ",
"D P l.n.n.n.@.@.l.{ o.d { :.{ f. .f.f.~ a >.&.N.r.k.7 7 S H V 4 ",
"w [ %.S.%.S.n.@. . .X.a F H S y.>.k.] d.6 2 7 &.f.f.j j B B B a ",
"< g g j u i u u u i j a F R R V H F D A.- 2 p 7.-.k.a 4 m B S a ",
"; # g [ l.m.{ {  . .I i F V V H V S Z ' # : p 1.y.~ a h a 4 a a ",
". # g ( 4.9._ 3.D.{ J f H R V V V S G r.% % p S A F <.6 - a F F ",
"  X t G H U V V V H D f B R b B V S F r.# % 6 R S H *.6 # p A ! ",
". % p H H V V V H V L 8 V R R B S H H k.% % 4 U U H 7.6 > % = > ",
"% % a H H V V B U B L 5 S S R S S H H A.% # j U V R 7.a = = > - ",
"# # 7 V H B B B U n ~ 7 S S S S U U S ' : % d U H U B a # = 4 7 ",
"% 4 v H S B B B S n ` e S S S S S V U >.# > 5 U R R A , h 6 a 9 ",
"% j B H H S B B H n ~ 7 S S S B S M U 1.% 6 8 U S H ( j B A S B ",
"% 7 B H H S S V S B L 5 S S S V S N U <.@ a f R Y S ~ r H x R S ",
"% 7 H H S S H H B S D 7 S S S B S V N D = j U H Y B F 9 S Q R H ",
"$ a S H S S B S B S ~ 7 B S B B S S S ~ # 6 B U S H F 5 V H c B ",
"$ d H H H A j 7 k 3 q 5 0 r 8 V z S S &.% 7 U H S W &.5 C S V B ",
"$ d H U H i j ) >.l.n.m.>.P I p G H H _ % a V H S Y B 7 B B V S ",
"$ d H U H a h / ) >. .y.:.P I a S R Y S * a H R S S S 7 B S S B ",
"= a H U H i a Y W G A F Y A ( i H U H _ % u V H S S B 1 7 7 S r ",
"+ 6 H U H i a S S S S H R B ^ i V U R / % a V R H U T 6 e S B H ",
"= p S H H a i S S S S H R V K i V U R T * 4 H H S S S 4 B S B x ",
"+ p S H H a a H H S F S U F D d R R R Y % a V R S S S 4 S S B S ",
": p G H H a a R U S A S H S m y V U S 0.% i V H S S U 4 U S S S ",
": p S H H a a R E F A S S F A d W U R Y % a H H S S U 9 S S S S ",
"+ a m H V a u V R R H H B S S 7 H H B H % a R S R H S s S U S S ",
"o p V S H u l V R R H H S S S r H S B B % a H S U H H i S S S S ",
"+ t j a j a t p a 7 7 7 7 7 7 , 9 v a 4 @ u V H S S H i S S S S ",
"O h R R H H S H H H S S U U S S H V a > # a H H U S S i S S S V ",
"O u R R H H V V V S S S S S S U S R j % % a H H H S S i S H S V ",
"O a H U H H V V V B S S V S S S S S j @ % a V S S S S i U H S B ",
"& a H U H H V V V S S S B S B S S R j = = a S S H S U i U H S S ",
"O u H R H H H R H H H R B S S B S S t X # a F G S H H i S F S S "
};
