/* XPM */
static char *_e0366d55fbf4852f6cf028010c42a97ZPlXgIDJmYvluLeJ[] = {
/* columns rows colors chars-per-pixel */
"32 32 178 2 ",
"   c #D62A2A",
".  c #96603E",
"X  c #DC4031",
"o  c #C8703F",
"O  c #AA5D4C",
"+  c #B25E4E",
"@  c #AE5F54",
"#  c #BB5F5E",
"$  c #AC6A44",
"%  c #AC634B",
"&  c #AF6848",
"*  c #B06342",
"=  c #BC6747",
"-  c #BA6946",
";  c #B4664C",
":  c #B46B4D",
">  c #BD6E4F",
",  c #AF7645",
"<  c #B27443",
"1  c #BF7642",
"2  c #B47049",
"3  c #BD7449",
"4  c #BA7D4C",
"5  c #AE6A54",
"6  c #B66553",
"7  c #BD6654",
"8  c #B36B51",
"9  c #BC6C52",
"0  c #B06658",
"q  c #B8655A",
"w  c #BE6C59",
"e  c #B67253",
"r  c #BA7555",
"t  c #BB7953",
"y  c #B9725B",
"u  c #BD7C5B",
"i  c #BC6F66",
"p  c #BA7764",
"a  c #CB5C48",
"s  c #C67744",
"d  c #C17B47",
"f  c #C4704D",
"g  c #C9764E",
"h  c #CD7A4E",
"j  c #C46E52",
"k  c #C46E59",
"l  c #D46850",
"z  c #D66758",
"x  c #C37353",
"c  c #CB7454",
"v  c #C37C54",
"b  c #CA7A54",
"n  c #C3735C",
"m  c #CA7759",
"M  c #C37D5B",
"N  c #CC7B5B",
"B  c #D07454",
"V  c #DD7757",
"C  c #D57C56",
"Z  c #D97C56",
"A  c #D37C5C",
"S  c #D87F58",
"D  c #C17665",
"F  c #C27F61",
"G  c #B98149",
"H  c #BA8755",
"J  c #BE8C53",
"K  c #BF8665",
"L  c #C3814D",
"P  c #C18A4E",
"I  c #D2844C",
"U  c #C58155",
"Y  c #CA8451",
"T  c #C38951",
"R  c #CB8D56",
"E  c #C3835A",
"W  c #CB835B",
"Q  c #C68A5B",
"!  c #CB8B5B",
"~  c #D28355",
"^  c #DB8454",
"/  c #D18854",
"(  c #DD8B57",
")  c #D4835B",
"_  c #DB855C",
"`  c #D48D5C",
"'  c #DC8A5D",
"]  c #CE9657",
"[  c #C59058",
"{  c #CB955C",
"}  c #CB9B5E",
"|  c #D59051",
" . c #D99355",
".. c #DF9C57",
"X. c #D5935B",
"o. c #DD925B",
"O. c #DB9A5D",
"+. c #E38D55",
"@. c #E08558",
"#. c #E38D5D",
"$. c #EA8E5B",
"%. c #E39355",
"&. c #E89056",
"*. c #E4915D",
"=. c #E99159",
"-. c #E19C5D",
";. c #D2A25F",
":. c #E2A35C",
">. c #EDA15E",
",. c #EEA95D",
"<. c #F0AA5E",
"1. c #CB8461",
"2. c #C58C65",
"3. c #CA8B64",
"4. c #C9876A",
"5. c #C6896B",
"6. c #D48462",
"7. c #DD8661",
"8. c #D48D62",
"9. c #DC8B61",
"0. c #CE9367",
"q. c #CA946B",
"w. c #C8986B",
"e. c #D39564",
"r. c #DD9561",
"t. c #D59C66",
"y. c #DC9C61",
"u. c #E58B60",
"i. c #E68A61",
"p. c #E18C61",
"a. c #E38D61",
"s. c #E28D60",
"d. c #E08E61",
"f. c #E18E61",
"g. c #E38F61",
"h. c #E08E62",
"j. c #E18E62",
"k. c #E48C60",
"l. c #E68D60",
"z. c #E48D63",
"x. c #E28E66",
"c. c #E68D61",
"v. c #E19060",
"b. c #E39060",
"n. c #E29063",
"m. c #E59161",
"M. c #E69162",
"N. c #E59063",
"B. c #E39462",
"V. c #E39067",
"C. c #E79060",
"Z. c #EA9360",
"A. c #E99361",
"S. c #E99460",
"D. c #E29B66",
"F. c #E49C63",
"G. c #CEA06A",
"H. c #D5A264",
"J. c #DAA565",
"K. c #D4A863",
"L. c #DCA867",
"P. c #D7A168",
"I. c #D2A76C",
"U. c #D1A56E",
"Y. c #D5AA68",
"T. c #D4A96D",
"R. c #D5B361",
"E. c #D0B86F",
"W. c #D0A871",
"Q. c #E1A562",
"!. c #EEA464",
"~. c #EAA464",
"^. c #E3A863",
"/. c #EDAE65",
"(. c #E8AC6A",
"). c #E9B26F",
"_. c #F2B361",
"`. c #F8B263",
/* pixels */
") g.g.g.g.g.g.9.g.v.9.9.V.).D.!.) g.g.g.g.g.g.9.g.v.9.9.V.).D.!.",
"7.v.g.8._ g.9.g.M.v.9.9.N.(.v.#.7.v.g.8._ g.9.g.M.v.) g.g.g.g.g.",
"_ g.u.r.3.0.n x.g.*.' ' #.o.*.#._ g.u.r.3.0.n x.g.*.7.v.g.8._ g.",
"g.k.u.u.8.u 9.k.g.#.) ) #.*.V v g.k.u.u.8.u 9.k.g.#._ g.u.r.3.0.",
"A M.*.9.u r ' v.' *._ ) *.#.#.t A M.*.9.u r ' v.' *.g.k.u.u.8.u ",
"W 9.1.y y 6.e.3.N v._ _ *.*.#.e W 9.1.y y 6.e.3.N v.A M.v.9.u r ",
"E p # y n 9.` M 9.*.' ' ) ' M q E p # y n 9.` M 9.v.W 9.1.y y 6.",
"0 3.u y 6.#.' u _ #._ ' E t 5 8.0 3.u y 6.#.' u _ #.E p # y n 9.",
"2.9.W K I.~ #.M 7.k._ ` ! r N E.2.9.W K I.~ #.M 7.k.0 3.u y 6.#.",
"W.Y.u 5.q.N M.2.t.9.#.' ! x ' P.W.Y.u 5.q.N M.2.t.9.2.9.W K I.~ ",
"w.I.u 4.) S _ u T.1.' ' E 8 #.A.w.I.u 4.) S _ u T.1.W.Y.u 5.q.N ",
"b x F D A @ W m L.W ' W e ' $.#.b x F D A @ W m L.W w.I.u 4.) S ",
"o = w i ) W r C X.m ) 6 % ` ~ ) o = w i ) W r C X.m b x F D A @ ",
"` j ; $ c 6 W ~ =.#.g.F 3.) l N ` j ; $ c 6 W ~ =.#.o = w i ) W ",
"#.=.$ . % A #.x 7 *.#.U ! X   m #.=.$ . % A #.x 7 *.` j ; $ c 6 ",
"%. .; r % x x ' _ A.#.r W ) a m %. .; r % x x ' _ A.#.=.$ . % A ",
":.U 7 n M : x #.*.S.' 6 A _ B.*.:.U 7 n M : x #.*.S.%. .; r % x ",
"G.n A _ K.t k _ ` W 9 O + : H g G.n A _ K.t k _ ` W :.U 7 n M : ",
"{ Q c #.H.n 2 & ; x v 9 9 z u.) { Q c #.H.n 2 & ; x G.n A _ K.t ",
"e { ! M.#.) ; j -.K.e m 6 _ k.J.e { ! M.#.) ; j -.K.{ Q c #.H.n ",
"t ! W #.7.7 ; * ^ } + _ b A u.R.t ! W #.7.7 ; * ^ } e { ! M.#.) ",
"} W M #.k 8 j I x ) C O.! m k.{ } W M #.k 8 j I x ) t ! W #.7.7 ",
"R.C c @.9 > ^ +.~ ) _ ;.` U ^ ~ R.C c @.9 > ^ +.~ ) } W M #.k 8 ",
"] C C =.~ x +.&.~ j _ ` x ~ x c ] C C =.~ x +.&.~ j R.C c @.9 > ",
": c C =.( 9 +.^ b x Z _ ( ( Y C : c C =.( 9 +.^ b x ] C C =.~ x ",
"v ` C =.=.~ ^ ^ c c C _ *.Z v o.v ` C =.=.~ ^ ^ c c : c C =.( 9 ",
"O.^ ^ $.=.s ^ =.*.f ' F.~././.o.O.^ ^ $.=.s ^ =.*.f v ` C =.=.~ ",
"/ h h ( *.d r.y.J.X.O.^.F.^.Q.X./ h h ( *.d r.y.J.X.O.^ ^ $.=.s ",
"Y Y 3 L F.R 1 X.y.g R ~./.Q.y.v Y Y 3 L F.R 1 X.y.g / h h ( *.d ",
"4 4 4 J J e.[ T o.- #.*.' #.x 6 4 4 4 J J e.[ T o.- Y Y 3 L F.R ",
":.P G , , < L -.] ] R / / ^ B c :.P G , , < L -.] ] 4 4 4 J J e.",
"<.,.<._._._._._.:. ...| -.`.>.>.<.,.<._._._._._.:. .:.P G , , < "
};
