/* XPM */
static char *a77a912609ec492eeeba689cb3d87e42fNLjG6EB7VA6Xwm8[] = {
/* columns rows colors chars-per-pixel */
"32 32 176 2 ",
"   c #5F3A5F",
".  c #633C5F",
"X  c #6C3E5D",
"o  c #703C5C",
"O  c #5D3A60",
"+  c #613B61",
"@  c #6B3D61",
"#  c #703F60",
"$  c #72435E",
"%  c #7F425D",
"&  c #734360",
"*  c #784462",
"=  c #A94233",
"-  c #AB4837",
";  c #AD4C3A",
":  c #B44E3E",
">  c #AF513E",
",  c #B6523C",
"<  c #B8533D",
"1  c #864C5F",
"2  c #94545E",
"3  c #9E575F",
"4  c #B25542",
"5  c #BA5744",
"6  c #B35A45",
"7  c #BD5A42",
"8  c #B45E48",
"9  c #BD5D48",
"0  c #A1565D",
"q  c #A6595E",
"w  c #B6634C",
"e  c #BB634C",
"r  c #BC6E54",
"t  c #B3645E",
"y  c #B4685F",
"u  c #834A65",
"i  c #8C4E64",
"p  c #845263",
"a  c #945362",
"s  c #A35760",
"d  c #A55860",
"f  c #AD5D60",
"g  c #9E6266",
"h  c #A36666",
"j  c #AF6060",
"k  c #AC6B68",
"l  c #B26363",
"z  c #B56962",
"x  c #BB6E63",
"c  c #BE7064",
"v  c #C05D43",
"b  c #C16145",
"n  c #C0634C",
"m  c #CA6D4B",
"M  c #C46658",
"N  c #C56D5E",
"B  c #C27357",
"V  c #CB7256",
"C  c #C2745B",
"Z  c #CE725C",
"A  c #C07B5D",
"S  c #CC7A5D",
"D  c #D67C55",
"F  c #D97E57",
"G  c #D0755C",
"H  c #D47D5B",
"J  c #D87E58",
"K  c #C36E62",
"L  c #C57363",
"P  c #CA7564",
"I  c #C57963",
"U  c #CC7A64",
"Y  c #C77469",
"T  c #CB766A",
"R  c #D27D64",
"E  c #D67D6A",
"W  c #CF825D",
"Q  c #DC8456",
"!  c #DF8856",
"~  c #D6815B",
"^  c #DB845B",
"/  c #DE895D",
"(  c #E18A57",
")  c #E28C5B",
"_  c #E79157",
"`  c #E89255",
"'  c #E6915A",
"]  c #C38464",
"[  c #CD8066",
"{  c #C58867",
"}  c #CE816C",
"|  c #C78C6A",
" . c #C88E6C",
".. c #D58264",
"X. c #DB8565",
"o. c #DF8A65",
"O. c #DD8867",
"+. c #DE8966",
"@. c #DF8D65",
"#. c #DF8E65",
"$. c #DC8965",
"%. c #D78169",
"&. c #D5846B",
"*. c #D98168",
"=. c #DB8369",
"-. c #DB8569",
";. c #D98669",
":. c #DB8669",
">. c #DD8568",
",. c #DC8569",
"<. c #DE8568",
"1. c #DD8669",
"2. c #DF8668",
"3. c #DD856A",
"4. c #DB8569",
"5. c #D7896A",
"6. c #D98B68",
"7. c #DA8B69",
"8. c #DD8868",
"9. c #DC8D68",
"0. c #DB8C69",
"q. c #C9916E",
"w. c #C9926F",
"e. c #DF9065",
"r. c #DE926B",
"t. c #D58272",
"y. c #DB8570",
"u. c #DF8F71",
"i. c #CB9672",
"p. c #CB9671",
"a. c #CC9974",
"s. c #CD9C76",
"d. c #CE9E78",
"f. c #DD9072",
"g. c #E08767",
"h. c #E08366",
"j. c #E08863",
"k. c #E18D61",
"l. c #E18F61",
"z. c #E28F62",
"x. c #E18F62",
"c. c #E28B65",
"v. c #E28A65",
"b. c #E08B66",
"n. c #E28B67",
"m. c #E18D65",
"M. c #E38C66",
"N. c #E38F66",
"B. c #E08D66",
"V. c #E48D67",
"C. c #E28C62",
"Z. c #E08569",
"A. c #E08B68",
"S. c #E18C6A",
"D. c #E29162",
"F. c #E39065",
"G. c #E19166",
"H. c #E09064",
"J. c #E59166",
"K. c #E69366",
"L. c #E39263",
"P. c #EA9D66",
"I. c #E49568",
"U. c #E3946A",
"Y. c #EA9569",
"T. c #E6996A",
"R. c #EC996B",
"E. c #E39072",
"W. c #CFA17A",
"Q. c #D0A37B",
"!. c #D1A57D",
"~. c #D2A77F",
"^. c #D1A57D",
"/. c #D2A87F",
"(. c #D4AD83",
"). c #D4AC83",
/* pixels */
"l l l l l l l l l f s s s s s s s s s s q q q q = (.= = (.w q 0 ",
"=.=.=.=.=.=.<.+.R U L L L L I I I U U U U U I U ; ^.8 w (.; I I ",
"=.=.,.,.<.<.<.+.R R =.X.X.............R ....S X.= { 4 = (.= R ..",
"=.,.,.g.g.<.<.<.R U ..............X.O.^ +.+.S <.; { ; > (.= X.c.",
"-.8.,.,.,.<.<.<.c.J.J.J.J.F.c.F.#.#.D.) k.k.~ O.- | = > (.= 0.F.",
"8.O.,.,.,.<.X.%.v.c.v.v.c.c.c.#.#.c.k.) k.k.W O.= w.; > Q.> 7.F.",
"-.-.,.,.,.<.<.=.X...........................I S = | = = w.= 0.U.",
"L L L L L L L L x P z z z z z z y t t t z z z t ; | ; 6 s.= L I ",
"U U U I P P P P L L L c c L L c c x x x x z K N = ] 6 w ^.8 x K ",
"7.X.;.;.;.A.<.N.v.j.X.......U z 3 1 $ $ $ 2 U =.= ] - ; p.= S U ",
"I.T.T.T.T.R.Y.R.O.X.X.$.$.$.U a % o X X X u c v.= | { ; W.= $.=.",
"I.U.T.T.U.T.U.R.5.X.+./ k.j.P i * . . . . u p O.= ] r ] p.4 7.E ",
"U.U.I.U.r.U.U.0.5.X.D.D.k.$.T a * . O O   u h #.= { = = p.= ..Y ",
"0.0.0.7.0.0.0.5.r.N.P.L.k.j.E i @ O O O O u &.J.= ^.= = p.= -.T ",
"P L L L P L L L U U U U U U R u @ O O O O u E.U.4 (.; 6 W.= u.t.",
"K K L L K K L L I U U R R U E u # O O O O u } y.= Q.6 6 /.= f.t.",
"P 5.I.I.%.%.=.-.7.c.k.j.j.v.E u $ O O O O u h &.= (.; ; Q.= P L ",
"L U -...R %.,.<...<.^ ^ $.j.U * X O O O O u k &.= ^.s. ./.= U Y ",
"L U X.X...X.O.<.X.+./ ) ) j.P i & O O O O u g 3.- ^.= ;  .; 5.U ",
"P U X.;.X.X.O.O...X./ j.C.j.U a X . O O + u k Z.> ).; > s.; X.U ",
"P R <.X.....<.+...X./ ) ) C.P s $ . + . @ u } Z.= W.I 4 (.= +.U ",
"L U O.;.U ..X.<.X.R / ) ) ) U l a & & & i h S.<.4 ^.W.d.(.= j.R ",
"L U O.X.U R X.<.<.X.! ) ) ) R ;.L.F.e.e.0.H X.k.= ^.p.s.(.= k.C.",
"P U O.X.L U X.X.c.L.! ) ' ) H H D.D.c.c.O.H ;.J.= (.=  .= A k.j.",
"L P R U N R X.X.$.k.~ ! ) ) H H ! ^ ^ ^ X.~ ;.k.= w = w.= = ~ ^ ",
"L U J.J.....<.<.#.k.! ' ) Q V H D H H H H ^ ^ ^ 7 9 n 4 C e ^ H ",
"L U <.X.R X.O.O.e.k.' ' ' ! D H ( ) ) ) ) H ) ' < B e v r 5 ) ^ ",
"P U <.<.^ R v.<.$.) ) ) ! ! Q ~ _ _ ' ' ' H ) ' b 7 , D 9 : ) ^ ",
"U R ,.<.^ =.>.>.v.C.! Q Q ( Q ^ ^ ' ' ' ' H ) ' Q 7 7 ! V b ' ^ ",
"U U -.X.X.X.>.h.A.c.F D Q ( Q ! ~ _ _ ' ) H ) ' ! M 9 Z N 5 H H ",
"I [ 6.;.....>.>.O.v.F D D ( Q ` ~ ) ) ) ! H ! ^ H G ! ) ) m ) ^ ",
"s d d d d d d d d f f f f f f f f f f f q q f f f f f l j f f t "
};
