/* XPM */
static char *a5fb0abd0f5845a8f76fcdd1daab4a284gjokkdRMvYI3oYR[] = {
/* columns rows colors chars-per-pixel */
"64 64 233 2 ",
"   c #120E16",
".  c #17141A",
"X  c #100D15",
"o  c #221A16",
"O  c #261D1A",
"+  c #2C231D",
"@  c #26201C",
"#  c #31251E",
"$  c #0C0E27",
"%  c #0F1128",
"&  c #1A1927",
"*  c #060C36",
"=  c #171B38",
"-  c #261D29",
";  c #292425",
":  c #352A24",
">  c #372D28",
",  c #3A312C",
"<  c #37302C",
"1  c #282738",
"2  c #362C35",
"3  c #3B3537",
"4  c #693719",
"5  c #723D1D",
"6  c #713716",
"7  c #66143D",
"8  c #443A35",
"9  c #47322B",
"0  c #572425",
"q  c #7A421E",
"w  c #4C423A",
"e  c #54423A",
"r  c #754222",
"t  c #7B4522",
"y  c #7E4A26",
"u  c #6D5336",
"i  c #061348",
"p  c #08164C",
"a  c #192451",
"s  c #282944",
"d  c #35364A",
"f  c #102571",
"g  c #263268",
"h  c #081A60",
"j  c #751646",
"k  c #463643",
"l  c #72314D",
"z  c #4A4445",
"x  c #554A46",
"c  c #5A5452",
"v  c #545055",
"b  c #625A57",
"n  c #6C504B",
"m  c #6B635B",
"M  c #72634C",
"N  c #565367",
"B  c #685A66",
"V  c #6D6668",
"C  c #726A64",
"Z  c #7A726C",
"A  c #716F79",
"S  c #85491E",
"D  c #844C25",
"F  c #864F27",
"G  c #85512C",
"H  c #8B532B",
"J  c #8D5428",
"K  c #93592C",
"L  c #955727",
"P  c #8A5732",
"I  c #935C32",
"U  c #975F34",
"Y  c #A15E28",
"T  c #9C6335",
"R  c #9C663A",
"E  c #986339",
"W  c #976532",
"Q  c #A7642B",
"!  c #A16635",
"~  c #A36B3C",
"^  c #A76B37",
"/  c #AC713D",
"(  c #A7713E",
")  c #B77739",
"_  c #B26C2F",
"`  c #C27B37",
"'  c #922958",
"]  c #9C6B44",
"[  c #9F7656",
"{  c #956F50",
"}  c #A26D41",
"|  c #AC7542",
" . c #A87549",
".. c #B47B44",
"X. c #B37D49",
"o. c #B87E47",
"O. c #A97C56",
"+. c #837A73",
"@. c #8F736B",
"#. c #A67C64",
"$. c #995978",
"%. c #BA824C",
"&. c #B7834A",
"*. c #BB8653",
"=. c #BD8955",
"-. c #B98758",
";. c #AF8A57",
":. c #9C8774",
">. c #A78469",
",. c #BA8C65",
"<. c #A98B74",
"1. c #AE927C",
"2. c #B5957A",
"3. c #BE9A61",
"4. c #C58849",
"5. c #C18A53",
"6. c #C18D5B",
"7. c #C5915D",
"8. c #CB9359",
"9. c #D49957",
"0. c #D5964A",
"q. c #C08F61",
"w. c #C39264",
"e. c #CC9B6B",
"r. c #C79967",
"t. c #CD9E6F",
"y. c #D7A469",
"u. c #D1A373",
"i. c #D2A87A",
"p. c #CCA273",
"a. c #E9B979",
"s. c #092F9B",
"d. c #233A8E",
"f. c #0F34A8",
"g. c #2B428E",
"h. c #2E4AAD",
"j. c #606DA5",
"k. c #2F54C8",
"l. c #3E61C9",
"z. c #4C6CCF",
"x. c #837E80",
"c. c #B57C8C",
"v. c #DC5F96",
"b. c #6E88DD",
"n. c #898587",
"m. c #959393",
"M. c #918B95",
"N. c #AA9684",
"B. c #B59985",
"V. c #A28D9D",
"C. c #B9A697",
"Z. c #8E94B1",
"A. c #A5A3A5",
"S. c #BEB6B7",
"D. c #BEB7B8",
"F. c #BFBBBB",
"G. c #B6B4B5",
"H. c #B0ADAF",
"J. c #C2A286",
"K. c #C7A98D",
"L. c #C4AC97",
"P. c #CBB196",
"I. c #D3B694",
"U. c #D5B995",
"Y. c #D0B08D",
"T. c #D687AC",
"R. c #CDBCAC",
"E. c #C9B6A6",
"W. c #D3BCA5",
"Q. c #D3BEA9",
"!. c #C0BDBD",
"~. c #CBBEB3",
"^. c #D7AEB5",
"/. c #E58EB6",
"(. c #DAC3AC",
"). c #D6C2AB",
"_. c #CEC0B3",
"`. c #C1C0BF",
"'. c #D5C6B8",
"]. c #E2CBB3",
"[. c #E5D3BE",
"{. c #97A9DB",
"}. c #AFB8D0",
"|. c #ABB8E4",
" X c #90A2E4",
".X c #C5BDC1",
"XX c #E2B5CB",
"oX c #BCC7E5",
"OX c #C5C3C3",
"+X c #C9C6C6",
"@X c #CAC9CA",
"#X c #CBCACC",
"$X c #CDCBCD",
"%X c #CDCDCE",
"&X c #CDCACA",
"*X c #C7C7C8",
"=X c #D2CBC5",
"-X c #D3CECB",
";X c #D9CEC4",
":X c #D6D2CD",
">X c #DBD3CA",
",X c #CECED1",
"<X c #D1CFD0",
"1X c #CDD0D4",
"2X c #D6D4D4",
"3X c #D9D5D5",
"4X c #DBD9D6",
"5X c #D5D6D9",
"6X c #DAD6D9",
"7X c #DAD9DA",
"8X c #DBDADD",
"9X c #DCDBDC",
"0X c #D6D9DA",
"qX c #E5D7C4",
"wX c #E1DDDD",
"eX c #E2DDD5",
"rX c #E3C9D7",
"tX c #DFE0DF",
"yX c #E7E1D8",
"uX c #DEDEE1",
"iX c #D3D8EA",
"pX c #E2DEE1",
"aX c #EBDEE5",
"sX c #DFE1E1",
"dX c #E4E5E5",
"fX c #E6E6E8",
"gX c #E7E8EA",
"hX c #EAEAEC",
"jX c #E9E7E7",
"kX c #EEEEF1",
"lX c #F0EFF2",
"zX c #F4F3F4",
"xX c #F9F9F9",
/* pixels */
"2X2X2X<X<X2X<X<X<X,X,X%X%X%X%X%X%X%X$X$X#X@X@X@X@X@X+X+X+X+X+X+X+X+X+X+X+X+X+X+X*X+X+X+X+X+X+X+XOXOXOXOXOXOXOXOXOXOXOXOXOXOXOXOX",
",X%X%X%X%X%X%X#X#X#X#X#X@X@X@X@X@X@X+X+X+X+X+XOXOXOX.X`.F.F.F.F.F.F.F.F.F.F.!.!.!.!.!.!.!.!.!.F.F.F.F.F.F.F.F.F.F.F.F.F.F.S.S.S.",
"%X%X%X%X$X#X#X#X#X#X#X@X@X@X@X*X*X+X+X+X+X+XOXOXOXOXOXOX.X`.F.F.F.F.F.F.F.F.!.!.!.!.!.!.!.!.!.F.F.F.F.F.F.F.F.F.S.F.!.!.!.!.S.S.",
"$X$X#X@X#X#X#X#X@X@X@X@X@X@X*X*X+X+X+X+XOXOXOXOXOXOXOXOX!.F.`.+X+X!.F.F.F.F.!.!.!.!.!.!.!.!.!.F.F.F.F.F.F.F.S.S.S.!..XOX.X!.S.S.",
"2XuX7X@X@X#X@X@X@X@X@X@X@X@X+X+X+X+X+X+XOXOXOXOXOXOXOX!.`.F.F.@X2XOXF.F.F.!.!.!.!.F.F.F.F.!.F.F.F.!.F.F.F.S.S.S.S.!.$X6X$X!.S.S.",
"%X0X7X2X$X@X@X@X@X@X@X@X@X@X+X+X+X+X+X+XOXOXOXOXOXOX`.!.`.`.OX$X$XOXF.F.F.!.!.!.!.!.!.!.F.F.F.F.F.F.F.F.F.S.S.S.!.OX-X2X+X!.S.S.",
"%X2X2X2X2X%X#X@X@X@X@X@X@X@X*X+X+X+X+X+X+XOXOXOXOX`.OXOX`.OX+X%X2X@X`.F.F.F.F.!.!.!.!.!.!.!.!.!.!.!.F.F.F.F.!.!.OX&X&X+X!.!.!.!.",
"%X2X2X7X0X2X<X$X@X@X@X@X@X@X*X*X+X+X+X+X+X+X+XOXOXOXOXOXOXOX@X2X2X$XOX`.`.`.!.!.!.!.!.!.!.!.!.!.!.!.!.!.!.!.!.OX&X&X&XOX!.!.S.!.",
",X2X2X7X8X8X0X2X<X,X%X%X%X%X$X%X%X%X$X$X$X#X$X#X@X@X@X@X@X$X2X7X7X2X%X*X*X*X*X*X+X+X+X+X*X*X+X+X+X+X+X+X+X&X-X<X<X<X-X+XOXOX.X.X",
"8XuXuXdXfXfXfXdXpXuXuX8X8X8X8X8X8X8X8X8X8X8X8X8X8X7X8X8X8X9XdXdXdXdXuX8X8X8X7X7X7X7X7X7X7X7X6X6X6X6X6X6X9XwXpXpXpXpX8X6X3X2X3X3X",
"uXuXpXdXfXfXfXfXdXdXuXuXuXuXuXuXuXuX9X9X9X9X9X9X8X8X8X8X9XuXdXfXfXdXdX9X8X8X8X8X8X8X8X7X7X7X8X7X7X6X6X9X9XpXpXpXpXwX6X6X3X3X3X3X",
"uXuXuXdXfXfXfXdXdXdXdXpXpXdXdXpXpXdXdXdXdXdXdXdXdXuXdXdXdXfXhXhXhXhXfXdXpXuXuXuXuXuXuXuXuXpX9X9X9X9XpXdXdXdXdXdXdXpXwX8X6X6X6X6X",
"uXuXuXdXdXfXdXdXdXfXfXdXdXdXpXpXdXdXdXdXdXdXpXpXuXdXdXdXdXfXhXhXhXhXfXdX9XuXuXuX9X9X9X9X9X9X8X8X9XpXdXdXdXdXpXpXpXwX8X6X6X6X6X6X",
"uXuXuXdXdXdXdXdXdXfXfXdXdXdXdXdXdXdXuXuXuXuXuXuXuXuXuXuXdXdXfXfXfXfXdXsX9X9X9X8X8X9X9X9X8X8X8X8XpXdXdXdXdXpXpXpXpXwX6X6X6X6X6X6X",
"uXuXuXdXdXdXdXdXdXfXfXfXdXdX-XR.C.C.~.=X=X-X-X-X-X-X=X~.C.C.C.E.C.L._.;X:X3X3X3X3X3X:X'.R.Q.Q.;X9XdXpXpXpXpXpXpXwX6X6X6X6X6X6X6X",
"dXpXuXuXdXdXfXdXdXfXfXfXfX3X1.y 5 r G G H I I E E R R I F r r G 5 t U ~ &.=.=.=.*.| R E R R R ,.(.pXpXpXpXpXpXwX8X6X6X6X6X6X6X6X",
"dXpXdXdXdXdXfXdXdXfXfXfXfX-X>.P G 5 4 0 4 6 q S S J L L S 6 5 r 5 S L Y L L J F S q r t t 5 G O.R.wX9XpXpXwXwX8X9X6X6X6X6X6X6X6X",
"dXdXdXdXdXdXdXfXfXdXfXdXdX=X>.J J H r 4 5 5 q q J Q ) ) ) ! U T / 4.9.9.8.X.} } I F G T U 6 q  .E.9X9X9X9XwXwX9X6X3X3X6X6X6X6X6X",
"dXdXdXdXdXdXdXfXdXdXdXdXdX2X1.R | E t 4 4 q D F J L K Y Y K H K ^ ..%.4.5.5.5.4.&.| ~ T J 5 5 >.'.8X8X8X8X8X8X6X3X3X3X6X6X6X6X6X",
"dXdXdXdXdXdXdXfXfXfXdXdXdX3X1.P K G G T ! ^ ^ ( / | ..o.&.%.=.6.7.r.e.t.u.i.i.i.i.i.e. .F 4 5 <.;X8X8X8X8X8X9X6X6X3X6X6X6X6X6X6X",
"dXdXdXdXdXdXdXfXfXfXdXdXfX9XB.I J G ~ t.P.E.E.W.Q.).(.(.(.(.].].].[.[.[.qXqXqXqX[.'.K.O.K 5 r B.4X8X8X8X8X9X9X6X6X6X6X6X6X6X6X6X",
"dXdXdXdXdXdXdXdXfXfXfXdXdX9XN.I H G ( Y.2X0X8XsXdXgXgXhXyX).Y.Y.U.qXlXlXkXhXhXhXfX9XW.-.T 5 y B.9X8X8X8X8X9X7X3X3X3X6X3X3X6X6X6X",
"dXdXdXdXdXdXdXdXfXfXdXdXdX9XB.] T K | Y.2X8X9XdXdXgXhX>Xp.3.r.3.r.).hXzXzXlXhXhXhXwXW.,.| F G K.9X9X9X9X9X7X3X3X3X3X3X3X3X3X3X3X",
"dXdXdXdXdXdXdXdXdXdXdXdXdX3X1.R / T / Y.3X8XsXdXgXhX@X:.E ] ;.;.;.M Z &XzXzXkXhXhXdXW.w.*.I P K.3X9X9X9X7X6X3X3X3X3X3X3X3X3X3X3X",
"dXdXdXdXdXdXdXdXdXdXdXdXdX3X1.R / T ..I.3X8XdXdXhX8Xx., 9 u O.O.u O . M.zXzXzXkXhXdXQ.w.w.] I K.3X7X7X7X6X3X3X3X3X3X3X3X3X3X3X3X",
"dXdXdXdXdXdXdXdXdXdXdXdXdX3X1.R | ! ..I.3XuXdXfXdXT.' 7 9 n @.@.8 . ; m.zXzXzXzXhXdX).w.r. .U L.3X6X7X6X3X3X3X3X3X3X3X3X3X3X3X3X",
"dXdXdXdXdXdXdXdXdXdXdXdXdX3X1.~ %.| ..I.4XuXdXgX^.c.$.l 0 n K.B.x 2 v G.xXzXzXzXkXjX(.r.e. .~ L.3X6X3X3X3X2X3X3X3X2X2X3X3X3X3X3X",
"dXdXdXdXdXdXdXdXdXdXdXdXdX3XN.} e.=...U.4XsXdXdXT.T.m.k > e #.{ 3 3 x.9XxXxXzXzXlXjX(.r.u.=.| L.3X3X3X3X2X2X2X3X2X3X2X3X3X3X3X3X",
"dXdXdXdXdXdXdXdXdXdXdXdXdX3XN.| y.6...I.4XdXfXrXv./.OXV < M i.@.< 3 A.xXxXxXzXzXzXjX(.r.u.6.| K.3X3X3X2X2X2X2X2X2X2X2X2X3X3X3X3X",
"dXdXdXdXdXdXdXdXdXdXdXdXdX3XN.| y.6...U.4XdXfXXXv.v.^.+.e N.].:.x x V G.zXxXxXzXzXjX(.r.u.6.| K.3X3X2X2X2X2X2X2X2X2X2X2X2X2X2X2X",
"dXdXdXdXdXdXdXdXdXdXdXdXdX3XB.X.y.7.&.U.4XdXfXhXaX.XM.N 2 8 e 8 8 x @.@.M.dXxXzXzXhX(.r.u.7.( K.2X2X2X2X2X2X2X2X2X2X2X2X2X2X2X2X",
"dXdXdXdXdXdXdXdXdXdXdXdXdX3XB.X.y.7.&.U.4XdXfXhXlX|.z.s.g c m x 3 2 3 7 j V.zXzXzXhX(.r.u.7.( J.:X2X2X2X2X2X2X2X2X2X2X2X2X2X2X2X",
"dXdXdXdXdXdXdXdXdXdXdXdXdX3XB.X.y.7.&.U.4XdXgXhXlX|.k.s.a k c z 2 s k j 7 B #XzXzXhX(.r.u.w.^ B.:X2X2X2X2X2X2X2X2X2X2X2X2X2X2X2X",
"dXdXdXdXdXdXdXdXdXdXdXdXdX3X1.( y.7.&.U.4XdXhXhXkX{.k.s.h 1 z n ' ' j j 1 d H.zXzXjX(.w.u.w.! 2.:X3X2X2X2X2X2X2X2X2X2X2X2X2X2X2X",
"dXdXdXdXdXdXdXdXdXdXdXdXdX3XB.~ 7.6.&.U.4XdXgXhXiX Xk.s.f B N.B.@.l 2 1 1 1 M.hXzXjX(.w.e.6.K <.;X3X2X2X2X2X2X2X2X2X2X2X2X2X2X2X",
"dXdXdXdXdXdXdXdXdXdXdXdXdX:X2.I } | X.I.3XsXfXhXoXb.k.s.f d M +.Z b k s = & A uXlXjX(.w.w. .4 { _.2X2X2X2X2X2X2X2X2X2X2X2X2X2X2X",
"fXdXdXdXdXdXdXdXdXdXdXdXdX-X<.E ~ E  .I.3XuXdXfX|.z.k.s.g z c m C m z s ; & v }.kXdX(.q.} y 5 O.R.2X2X2X2X2X2X2X2X2X2X2X2X2X2X2X",
"fXfXfXdXdXdXdXdXdXdXdXdXdX:X<.E ~ E  .I.2X8XsXfX|.z.h.g 3 z m C C b 8 ; & & 3 A.hXdX).,.~ t 5 O._.2X2X2X2X2X2X2X2X2X2X2X2X2X2X2X",
"fXfXfXdXdXdXdXdXdXdXdXdXdX:X2.I R ~ o.I.2X0XuXsX{.l.g.k , 8 C Z V x 1 p i % & n.hXdXQ.,. .G 4 { R.2X2X2X2X2X2X2X2X2X2X2X2X2X2X2X",
"fXfXfXdXdXdXdXdXdXdXdXdXdX:X1.T *.*.&.I.:X0X8XuX Xl.N 8 > , b +.Z x = i i $ . A 8X9XQ.q.w.O.t { R.2X2X2X2X2X2X2X2X2X2X2X2X2X2X2X",
"gXfXdXdXdXdXdXdXdXdXdXdXdX:X<.T 8.5.o.Y.%X5X0X5XZ.j.b 2 & ; x +.Z z & i i $   N *X7XW.w.e.6.K >.'.2X2X2X2X2X2X2X2X2X2X2X2X2X2X2X",
"gXdXdXdXdXdXdXdXdXdXdXdXdX:X1.~ 9.5.o.P.#X1X5X,XZ.A b d 1 & 2 C Z z & * * $ X z H.3XW.w.e.w.U 2.:X2X2X2X2X2X2X2X2X2X2X2X2X2X2X2X",
"gXdXdXdXdXdXdXdXdXdXdXdXdX:X1...9.5...K.+X,X1X*XM.V v a p * & 3 , ; & * * $ X 1 m.2XE.w.e.7.! 2.:X7X3X0X2X0X0X0X2X2X2X2X2X2X2X2X",
"dXdXdXdXdXdXdXdXdXdXdXdXdX:X1.| 9.=...P.@X1X5X*XM.N g h p = 2 , : , , & $ $ X - n.2XW.w.e.6.! B.4X9X9X7X7X7X7X7X7X7X7X7X7X7X7X7X",
"dXdXdXdXdXdXdXdXdXdXdXdXdX:X1./ 9.%...Y.:X0X8X}.j.h.d.h = 3 x z 3 c b < .   X . A 2XW.q.e.6.! J.3X9X9X9X9X9X9X9X9X9X9X9X9X9X9X9X",
"dXdXdXdXdXdXdXdXdXdXdXdXdX:X<.^ 8.%...I.2X9XdX}.z.h.f = @ 8 b x , m +.x ; . X X V <XQ.q.e.6.! J.4XsXsXsXsXtXtXtXtXtXtXtXtXtXtXtX",
"dXdXdXdXdXdXdXdXdXdXdXdXdX:X<.~ 8.&...I.3XdXfX{.l.f.h & ; 8 x 8 , c C w : & % % N OX(.q.e.=.! J.4XdXdXdXdXdXdXdXdXdXdXdXdXdXdXdX",
"dXdXdXdXdXdXdXdXdXdXdXdXdX:X<.T 4.....U.9XdXhX{.l.f.a O ; < 8 , ; w n 8 , s g.j.}.9X(.6.r.*.T J.eXdXdXdXdXdXdXdXdXdXdXdXdXdXdXdX",
"dXdXdXdXdXdXdXdXdXdXdXdXdX:X<.U / ^ | I.9XdXgX|.z.d.s @ o ; 8 : O 8 w > : v H.kXzXhX(.6.6.} K J.eXdXdXdXdXdXdXdXdXdXdXdXdXdXdXdX",
"dXdXdXdXdXdXdXdXdXdXdXdXdX:X<.I ( ! / I.7XdXgXhXiXM.3 @ o + : O o : , : : x H.zXzXjXQ.6.5.} K J.eXdXdXdXdXdXdXdXdXdXdXdXdXdXdXdX",
"dXdXdXdXdXdXdXdXdXdXdXdXdX:X<.K ! T / Y.7XsXdXhXhXm., O o @ + o o # > : : , m.hXkXjXW.=.%.E H J.eXdXdXdXdXdXdXdXdXdXdXdXdXdXdXdX",
"dXdXdXdXdXdXdXdXdXdXdXdXdX:X<.K L J ^ Y.2XuXdXfX,XC + @ o @ + o . O + # : : n.dXhXdXW.=.X.I G J.eXdXdXdXdXdXdXdXdXdXdXdXdXdXdXdX",
"dXdXdXdXdXdXdXdXdXdXdXdXdX-X<.I K F ~ K.2X8XsXdXG.c + O o @ + o   O # # : 8 m.dXhXdXW.=./ F F J.yXdXdXdXdXdXdXdXdXdXdXdXdXdXdXdX",
"dXdXdXdXdXdXdXdXdXdXdXdXdX=X<.H D y T K.2X0X8XsX8XS.n.b w , @ O O O : 8 C A.2XhXfX9XP.*.! 5 q 2.yXdXdXdXdXdXdXdXdXdXdXdXdXdXdXdX",
"dXdXdXdXdXdXdXdXdXdXdXdXdX=X>.y t y T p._.'.'.'.;X;X>X;X'.~.C.C.N.N.C.'.eXyXyXyXyXeXY.X.I 5 5 >.>XdXdXdXdXdXdXdXdXdXdXdXdXdXdXdX",
"dXdXdXdXdXdXdXdXdXdXdXdXdX=X>.F G G K ^ / / ....o.&.%.%.5.6.7.7.r.e.e.t.u.i.i.i.i.i.t. .G 5 5 >.;XdXdXdXdXdXdXdXdXdXdXdXdXdXdXdX",
"dXdXdXdXdXdXdXdXdXdXdXdXdX=X#.G K I y 4 4 q D F J L L L K K W T ! ^ / ) ) ) / ( ~ R E I U r 4 [ '.dXdXdXdXdXdXdXdXdXdXdXdXdXdXdX",
"dXdXdXdXdXdXdXdXdXdXdXdXdX_.[ K ^ ~ G D J K K ! ) 4.0.9.9...^ / 5.y.a.a.a.r.=.*.| ! ! | ~ q 5 E L.dXdXdXdXdXdXdXdXdXdXdXdXdXdXdX",
"dXdXdXdXdXdXdXdXdXdXdXdXdX'.#.I T G 5 q D q q S L Q Q _ Y D J T U Q ) ` ) _ ^ _ Q U U T T F I -.R.dXdXdXdXdXdXdXdXdXdXdXdXdXdXdX",
"dXdXdXdXdXdXdXdXdXdXdXdXdX:X<.F r D G G J J J J K T ^ ! I G P E P E X.%.=.=.=.*.=.&.| ~ T R } -.).dXdXdXdXdXdXdXdXdXdXdXdXdXdXdX",
"dXdXdXdXdXdXdXdXdXdXdXdXdXdX=XE.L.L.E.~.~.R.E.E.R.R.R.R.E.L.E.E.E.W._.'._._._._.~._.'._.E.P.R.'.eXdXdXdXdXdXdXdXdXdXdXdXdXdXdXdX",
"dXdXdXdXdXdXdXdXdXdXdXdXdXdXdXdXdXdXdXdXdXdXdXdXdXdXdXdXdXdXdXdXdXdXdXdXdXdXdXdXdXdXdXdXdXdXdXdXdXdXdXdXdXdXdXdXdXdXdXdXdXdXdXdX",
"dXdXdXdXdXdXdXdXdXdXdXdXdXdXdXdXdXdXdXdXdXdXdXdXdXdXdXdXdXdXdXdXdXdXdXdXdXdXdXdXdXdXdXdXdXdXdXdXdXdXdXdXdXdXdXdXdXdXdXdXdXdXdXdX",
"dXdXdXdXdXdXdXdXdXdXdXdXdXdXdXdXdXdXdXdXdXdXdXdXdXdXdXdXdXdXdXdXdXdXdXdXdXdXdXdXdXdXdXdXdXdXdXdXdXdXdXdXdXdXdXdXdXdXdXdXdXdXdXdX"
};
