/* XPM */
static char *_3fa5b91d9a74e9fcf9b46ecb716bc72IoQzMgZlckeNCOf4[] = {
/* columns rows colors chars-per-pixel */
"64 64 128 2 ",
"   c None",
".  c #051825",
"X  c #12363C",
"o  c #4A1920",
"O  c #5A2D29",
"+  c #55312F",
"@  c #572F30",
"#  c #42393E",
"$  c #583033",
"%  c #52343A",
"&  c #6B3933",
"*  c #26643F",
"=  c #3F7E35",
"-  c #4E4837",
";  c #7C433F",
":  c #183F4D",
">  c #16444A",
",  c #19484B",
"<  c #1E5248",
"1  c #1C4757",
"2  c #194951",
"3  c #1A4C50",
"4  c #184855",
"5  c #1A4A54",
"6  c #1A4B55",
"7  c #1E4955",
"8  c #1C4956",
"9  c #1D4A57",
"0  c #1C4C57",
"q  c #1A425A",
"w  c #1A4B58",
"e  c #1F5553",
"r  c #24404A",
"t  c #225D4A",
"y  c #214755",
"u  c #2B4653",
"i  c #224E55",
"p  c #304C5F",
"a  c #245F56",
"s  c #20515C",
"d  c #33754F",
"f  c #307A49",
"g  c #2A6E5F",
"h  c #2E775A",
"j  c #327E53",
"k  c #3B7E56",
"l  c #327D5A",
"z  c #317C5F",
"x  c #2F6E64",
"c  c #397661",
"v  c #337D60",
"b  c #367C64",
"n  c #444E45",
"m  c #6D464E",
"M  c #7F4A44",
"N  c #6D5252",
"B  c #AA5739",
"V  c #AC5B3D",
"C  c #8C4C42",
"Z  c #9A4F46",
"A  c #985043",
"S  c #955148",
"D  c #8A5850",
"F  c #A55D43",
"G  c #A45648",
"H  c #B56647",
"J  c #B06149",
"K  c #B9664A",
"L  c #BC7259",
"P  c #856264",
"I  c #95747D",
"U  c #A86F67",
"Y  c #CC7B57",
"T  c #358348",
"R  c #388B4A",
"E  c #358556",
"W  c #33805A",
"Q  c #33805D",
"!  c #34835C",
"~  c #3A9053",
"^  c #338064",
"/  c #58B057",
"(  c #61BB5B",
")  c #4F9078",
"_  c #61807F",
"`  c #66B266",
"'  c #67B861",
"]  c #6AC946",
"[  c #6EC847",
"{  c #6BC748",
"}  c #6DC74E",
"|  c #69CA48",
" . c #6CCA49",
".. c #77C648",
"X. c #70C54E",
"o. c #69C750",
"O. c #6CC851",
"+. c #6FC85A",
"@. c #6AC85D",
"#. c #70C45C",
"$. c #6CC564",
"%. c #DB8752",
"&. c #DE8554",
"*. c #DD8850",
"=. c #83C345",
"-. c #89D149",
";. c #98D64F",
":. c #A0DB54",
">. c #BDEF65",
",. c #D2F66E",
"<. c #E1F86E",
"1. c #E8F869",
"2. c #708286",
"3. c #75A194",
"4. c #839595",
"5. c #C9988E",
"6. c #C3B5B5",
"7. c #ADE682",
"8. c #C8BAC1",
"9. c #B0C7D1",
"0. c #DBDFDF",
"q. c #E2DAD3",
"w. c #D1DBE1",
"e. c #D8EEF0",
"r. c #E4EBEE",
"t. c #E6ECF0",
"y. c #E7F4F4",
"u. c #F8FBFB",
/* pixels */
"                                                                                                                                ",
"                                                                                                                                ",
"                                                                                                                                ",
"                                                                                                                                ",
"                                    ) v Q ! ! 7 X                                                                               ",
"                                3.3.g < t t < x x 2.2.3.3.                                                                      ",
"                                z l e 6 6 6 > l ^ 7 3 W W                                                                       ",
"                            . . > , ^ ^ e 6 , ! ^ 7 2 , , . .     _ * * * * t t . .                                             ",
"                            , 3 6 6 z ! a 6 , ! ^ , 3 , , 6 6     ) ! ! ! l ! z 1 i                                             ",
"                            z Q z ! s 6 g l z l ! l E [  .l j ! ! ! l ! l ! l ! l z u u                                         ",
"                        u.u.z Q ^ l e 7 g l l ! z j j } } E W l ! j j f f f j l Q b 7 X                                         ",
"                        ^ ! e 7 6 4 v l a 2 , l E ] ] z l  .] W l (  .>.1.>.{ ' 6 7 6 2 ! l                                     ",
"                        ^ Q 6 7 6 6 b z g 6 3 W j o.o.Q Q @.} W ! (  .>.,.,.X.` 9 6 6 2 l l                                     ",
"                        s w 6 7 6 6 6 4 x W W Q v 4 4 l W 2 , ] ] ]  .[ { / 4 6 1 9 1 6 ! l                                     ",
"                        s 6 a a 3 6 6 w e g g g g 2 2 x x 2 2 ] ] ;.:.-.{ / k c 9 9 1 w g a                                     ",
"                        s 7 l z 3 7 6 w 4 2 2 2 2 2 2 2 2 2 2 | ] ,.1.:.{ ]  .' 7 6 7 7 2 X                                     ",
"                    r > 9 1 ! l l ! w w w 7 w 7 7 6 2 o.O.X.#.] ] ] [ >.<.<.<.,.+.$.Q ^ 3 2 h h h h                             ",
"                    p 7 7 6 l ! l ! 6 2 6 7 9 6 7 s 4 { { [  . .]  .] >.1.1.1.,. .O.W Q 6 3 v l ! !                             ",
"                b ^ w 1 w 6 1 7 ! W W l e 7 1 1 > } } {  .1.1. .| >.1.:.[ ] ] -.1.<.} o.W ^ 3 6 6 6 b ^                         ",
"                b b 9 1 1 7 > , z ! W ! < X X X X [ ] ] { ,.1. .| >.<.:.} [ ..=.<.<.#.$.Q ^ 6 6 , , v ^                         ",
"                i 6 4 1 6 7 Q W ! ! ! E / [ [ { {  . .{ {  . .] ] ] ] ]  .:.1.,.X.#.6 6 4 6 4 4 v l , 6 6 6                     ",
"                i 6 6 1 6 7 Q W W W W W / / /  . ./ ( ] ] |  .;.;...] ] ] ..7.7.} #.t a w w g e g g a a 2 4 9.w.y.              ",
"                i 7 w 1 4 2 Q Q Q W W W l l f  .o.! l ]  .] ] 1.1.-.]  .| / W ~ } @.! b 6 3 ! l > 6 b ! , 4 4 4 9.              ",
"                w.e.p 6 v h < e ! W W W W l j R R ( ( R R { } -.-.= * f R l e t R R e e 3 2 W W ` ` ' ( d h , 6 9.              ",
"                    p 2 Q l w 6 z W Q W W W W W j  . .l l ]  .{ [ * 2 x l g 3 a Q z w 6 6 2 z l O.] {  .T E 3 2 9.              ",
"                    p 6 6 , 6 6 z W Q W W W W W W j j +.+.T T < < , 6 6 3 3 6 4 3 3 z z ^ z @.} ,.<...| T ! ! ^ a r 4.          ",
"                    p 6 6 6 6 6 z W Q W W W W W W W W  . .W h 6 2 7 7 7 4 2 6 6 w e W W Q l O.{ <.1...| T ! E ! a 9 4.          ",
"                u 4 6 6 l l Q Q w q v Q Q W W W W W Q l l Q W  . .* 4 0 4 g l ~  .O.W j | | E z O. .| { |  .t q 1 7 4.          ",
"                y w 6 w l z z Q 3 3 b v Q W W W W W W j j Q Q } } * 2 2 2 g h R { o.j j o.| T j +.O.} o.o.o.* 7 6 9 4.          ",
"          y.^ ^ w w w 6 l ! 6 6 l W e w g W W W W W W  .] l W l l W W l l l l ~ ] | | | W Q O.o.j Q Q Q z ! < 0 w 0 4.          ",
"          y.^ b w 6 > > h v 3 9 c v e 6 x ^ z Q Q W W #.#.W W l l W W E T f Q ~ #.$.$.$.Q W #.#.v b Q W l ^ 3 w : . 4.          ",
"          t.w 0 9 > z ^ 7 6 6 9 w 6 7 6 4 4 , Q Q W Q W W W W W W W W /  ./ l W ! ! ! ! ! ! W Q 3 4 v W , 6 w 0 9.              ",
"          t.w w w 4 > 2 w 6 9 9 9 9 0 w w 6 4 , , ! z 2 3 ! W ! W e > g j j W z 2 , Q Q , 3 3 3 ^ ^ , , 6 w e.                  ",
"          r.w 7 9 w 6 6 4 w 7 9 w 6 6 6 1 7 7 6 2 l z 6 6 Q l z Q t 2 g W l W z 2 2 l l 3 2 3 3 Q l 3 6 6 w e.                  ",
"                i 6 6 6 b ! 2 4 v W e 3 N S D 7 7 7 1 7 6 7 7 6 4 h v g 4 7 6 e l v 3 3 l l 6 2 ^ W 3 6                         ",
"                3 > 6 3 z z 6 6 b Q i 2 N Z D y y 7 y w w 9 9 9 w x z t 7 y y 6 ^ b , > l l 6 2 ^ z , 6                         ",
"                    p 6 6 6 6 7 6 6 z Q - + O Z C O O 6 9 9 9 7 1 # @ @ + @ @ # w u Z Z Z Z E l 2 7 7 7                         ",
"                    p 6 6 6 7 7 7 w c ^ n + O S S O @ w w w w 6 , # @ @ + $ $ % y u S S S S l W , 2 , ,                         ",
"                    p 2 w 9 7 7 1 6 6 y 7 6 1 @ @ A Z @ + + + + @ @ @ @ @ M Z Z A D 9 7 1 7 W l 3 0                 u.          ",
"                    2.2.0 9 9 9 a a w 7 1 4 u @ @ M C @ @ @ @ & & O @ @ @ % N N N N 6 0 7 6 g x 2.2.                u.          ",
"                        w 9 7 7 b ! s 7 6 6 u @ @ $ $ @ @ @ + A A & @ @ $ # 4 4 9 9 4 9 7 7 w q                     u.          ",
"                        w.w.y 7 e i 0 7 7 6 X q.q.@ @ + + C C & & M C C C N w w 6 9 9 : w.w.w.w.                                ",
"                            s y 0 7 7 7 7 7 .     $ @ + + A A @ @ C Z Z Z N 7 9 1 1 y :                                         ",
"                                                  $ @ $ + O O S S Y &.K Z 5.u.u.u.u.u.u.                                        ",
"                                                  $ @ + + $ $ Z Z Y *.K Z 5.                                                    ",
"                                                  $ @ + + A A *.*.*.*.K Z 5.                                                    ",
"                                                  $ @ + + A A *.*.*.*.H Z 5.                                                    ",
"                                                  $ @ + + A A *.*.B Z Z A 5.                                                    ",
"                                                  $ @ + + Z Z B B Y Y K A 5.                                                    ",
"                                                  $ @ + + Z Z Z Z Y *.H A 5.                                                    ",
"                                                  $ @ S S O O Z Z Y *.K A 5.                                                    ",
"                                                  $ @ Z Z O @ Z A Y *.K A 5.                                                    ",
"                                                  @ @ + + A Z *.%.&.&.K A 5.                                                    ",
"                                                  $ @ @ O S Z &.&.&.%.K A 5.                                                    ",
"                                              % @ $ @ Z Z + $ %.%.V Z Y *.Y A U                                                 ",
"                                              $ @ $ @ Z Z $ $ %.%.V Z L %.L A U                                                 ",
"                                        I $ @ $ $ $ @ Z Z Z Z @ @ C Z Z Z G Z U                                                 ",
"                                    8.6.P $ $ $ @ & & Z Z Z Z C C F J G Z G H L 6.6.                                            ",
"                                    m $ @ $ @ @ @ Z Z Z Z Z A *.*.%.%.K G K *.Y $ &                                             ",
"                                N N $ @ M S S S S Z Z O O A S & & & & C Z G G Z @ $ m m                                         ",
"                                % $ @ @ M A A A A A S $ + Z Z @ @ @ @ M A G Z C + @ @ o                                         ",
"                                                      S Z                                                                       ",
"                                                                                                                                ",
"                                                                                                                                "
};
