/* XPM */
static char *_500d65b969b4672c82b845777ef759cDcU8lWjs6hzp4avp[] = {
/* columns rows colors chars-per-pixel */
"64 64 70 1 ",
"  c #1A5339",
". c #17583E",
"X c #19583E",
"o c #1F5E3E",
"O c #235E3D",
"+ c #29633D",
"@ c #2D673C",
"# c #316338",
"$ c #33693A",
"% c #376C3A",
"& c #3A6F3B",
"* c #386F3C",
"= c #1E704A",
"- c #1F744B",
"; c #256A43",
": c #276C43",
"> c #216D46",
", c #266E46",
"< c #286B43",
"1 c #267047",
"2 c #287146",
"3 c #23734A",
"4 c #267248",
"5 c #22744A",
"6 c #27764A",
"7 c #2A774A",
"8 c #2B7849",
"9 c #2D7A49",
"0 c #2F7B49",
"q c #297A4C",
"w c #317746",
"e c #317A48",
"r c #317D49",
"t c #357F48",
"y c #367F59",
"u c #437F41",
"i c #6E6051",
"p c #34804A",
"a c #3B8348",
"s c #3C8248",
"d c #3E8749",
"f c #36805A",
"g c #3B8159",
"h c #3C8359",
"j c #478442",
"k c #428344",
"l c #448444",
"z c #488440",
"x c #478945",
"c c #478D47",
"v c #488E47",
"b c #458B48",
"n c #4B9047",
"m c #4C9146",
"M c #4F9447",
"N c #529143",
"B c #509347",
"V c #539646",
"C c #549746",
"Z c #539847",
"A c #559946",
"S c #589B46",
"D c #599C46",
"F c #519648",
"G c #559B48",
"H c #5B9F48",
"J c #488A57",
"K c #418458",
"L c #488B58",
"P c #639F55",
/* pixels */
"h66666666666666666666666666666666666666666q4OO4q6666666666666666",
"g666666666666666666666666666666666666666664;OO;46666666666666666",
"h66666666666666666666666666666666666666681OO,,OO1866666666666666",
"h66666666666666666666666666666666666666681OO,,OO1866666666666666",
"h666666666666666666666666666666666666666664;OO;46666666666666666",
"h66666666666666666666666666666666666666666q4OO4q6666666666666666",
"h666666666666666666666666666666666666666666611666666666666666666",
"g666666666666666666666666666666666666666666688666666666666666666",
"h666666666666666666666666666666666336666666666666666666666666666",
"h666666666666666666666666666666668rr7666666666666666666666666666",
"h66666666666666666666666666666663rvv9=66666666666666666666666666",
"h66666666666666666666666666666663tVAd976666666666666666666666666",
"h66666666666336666666666666666663tmAVbr6663366666666666666666666",
"h66666666668rr8666666666666666663tmDDBt367rr86666666666666666666",
"h6666666663rvvr366666666666666663tBDDmp-=9cvr3666666666666666666",
"h6666666663tVVt366666666666666663rbVSmw>7dAVt3666666666666666666",
"h6666666663tVVt33366666666666666679dGB+OkZDFt3666666666666666666",
"g6666666663rMMt6rr8666666666666666=9xz$*BDNle6666666666666666666",
"h6666666663tMBr9vvr36666666666666661+%zCHB&+26666666666666666666",
"h6666666663tVM9rVVt3666666666666668,.+jVNu+X,8666666666666666666",
"h6666666663tVVr9MVt366666666666666661:@##@<166666666666666666666",
"h6666666663rvv9rMVt36666666666666666q4o  o4q66666666666666666666",
"h66666666668rr6tVVt36666666666666666661,,16666666666666666666666",
"h66666666666333rvvr366666666666666666688886666666666666666666666",
"h666666666666668rr8666666666666666666666666666666666666666666666",
"g666666666666666336666666666666666666666666666666666666666666666",
"y566666666666666666666666666666666666666666666666666666666666666",
"Lr76666666666666666666666666666666666666666666666666666666666666",
"Pv9=666666666666666666666666666666666666666666666666666666666653",
"Pva97666666666666666666666666666666666666666666666666666666668rt",
"Kamnr36666666666666666666666666666666666666666666666666666663rvV",
"Kamnr36666666666666666666666666666666666666666666666666666663rvV",
"Pva97666666666666666666666666666666666666666666666666666666668rt",
"Pv9=666666666666666666666666666666666666666666666666666666666653",
"Jr76666666666666666666666666666666666666666666666666666666666666",
"f566666666666666666666666666666666666666666666666666666666666666",
"g666666666666666666666666666666666666666666666666666666666666666",
"h666666666666666666666666666666666666666666666666666666666666666",
"h666666666666666666688666666666666666666666666666666666666666666",
"g666666666666666666611666666666666666666666666666666666666666666",
"h66666666666666666q4OO4q6666666666666666666666666666666666666666",
"h666666666666666664;OO;46666666666666666666666666666666666666666",
"h66666666666666681OO,,OO1866666666666666666666666666666666666666",
"h66666666666666681OO,,OO1866666666666666666666666666666666666666",
"h666666666666666664;OO;46666666666666666666666666633666666666666",
"h66666666666666666q4OO4q66666666666666666666666668rr866666666666",
"h666666666666666666611666666666666666666666666333rvvr36666666666",
"h666666666666666666688666666666666666666666668rr6tVVt36666666666",
"h66666666666666666666666666666666666666666663rvv9rMVt36666666666",
"g66666666666666666666666666666666666666666663tVVr9MVt36666666666",
"h66666666666666666666666666666666666666666663tVM9rVVt36666666666",
"h66666666666666666666666666666666666666666663tVMr9vvr36666666666",
"h66666666666666666666666666666666666666666663tVVt6rr866666666666",
"h66666666666666666666666666666666666666666663rvvr333666666666666",
"h666666666666666666666666633666666666666666668rr8666666666666666",
"h6666666666666666666666667rr766666666666666666336666666666666666",
"h66666666666666666666666=9nn9=6666666666666666666666666666666666",
"h666666666666666666666679smms97666666666666666666666666666666666",
"h6666666666666666666663rnmttnnr366666666666666666666666666666666",
"h6666666666666666666663rnmttnnr366666666666666666666666666666666",
"h666666666666666666666679svvs97666666666666666666666666666666666",
"h66666666666666666666666=rVVr=6666666666666666666666666666666666",
"g66666666666666633rr333s33s3333868666666r3339883833r39333rr3r3r3",
"h6666666666666663r33r33333333si88666666633r3111r3r333r3r331333r3"
};
